# xmcd
#
# Track frame offsets:
#	150
#	19942
#	36100
#	59005
#	68190
#	77615
#	79275
#	86317
#	93805
#	99637
#	104490
#	109142
#	111587
#	113225
#	120332
#	124120
#	125632
#	129350
#	136607
#	140547
#	144432
#	146100
#	151735
#	154610
#	164202
#	167770
#	172542
#	175400
#	200617
#	214742
#	217150
#	220465
#	233940
#	247412
#	248815
#	254660
#	276995
#	278005
#	279580
#	281377
#	286472
#	293810
#	295700
#	297577
#	313425
#	319950
#	324492
#	342707
#	351827
#
# Disc length: 4754
#
# Revision: 2
# Processed by: cddbd v1.5.1PL0 Copyright (c) Steve Scherf et al.
# Submitted via: audiograbber 1.81.03
# Normalized: r1:DSETVAR2
#
DISCID=1b129031
DTITLE=Various Artist - Total Guitar CD Vol 26
DYEAR=1900
DGENRE=
TTITLE0=Live Forever - Midge Ure
TTITLE1=Winding Road - Tempest
TTITLE2=Fade - Billy White
TTITLE3=Giving Up The Ghost - Forget The Down
TTITLE4=Freedman - Fungus
TTITLE5=Welcome - Tim Tucker
TTITLE6=Demo - Procuct - Unknown
TTITLE7=Demo - Procuct - Unknown
TTITLE8=Demo - Procuct - Unknown
TTITLE9=Demo - Procuct - Unknown
TTITLE10=Demo - Procuct - Unknown
TTITLE11=Number Of The Beast - Riff Of The Month - Iron Maiden - Cover
TTITLE12=Q&A Harmonised Examples - Unknown
TTITLE13=Paradise City - Intro - Slash - Cover
TTITLE14=Sweet Child O'mine - Riff - Slash - Cover
TTITLE15=Knocking On Heavens Door - Intro - Slash - Cover
TTITLE16=Doin' Fine - Riff - Slash - Cover
TTITLE17=Paradise City - Backing - Slash - Cover
TTITLE18=Sweet Child O'Mine - Backing - Slash - Cover
TTITLE19=Doin' Fine - Backing - Slash - Cover
TTITLE20=Tuning - Unknown
TTITLE21=Where The Streets Have No Name - Intro - U2 - Cover
TTITLE22=Where The Streets Have No Name - First Verse - U2 - Cover
TTITLE23=Where The Streets Have No Name - Verse 2-3 - U2 - Cover
TTITLE24=Where The Streets Have No Name - Picked Outro - U2 - Cover
TTITLE25=Where The Streets Have No Name - Novice Intro - U2 - Cover
TTITLE26=Where The Streets Have No Name - Novice Chords - U2 - Cover
TTITLE27=Where The Streets Have No Name - Backing - U2 - Cover
TTITLE28=Angi - Bert Jansch - Cover
TTITLE29=Novice - Sliding D-Shape - Bon Jovi - Cover
TTITLE30=Novice - Wanted Dead Or Alive Riff - Bon Jovi - Cover
TTITLE31=Novice - Wanted Dead Or Alive - Bon Jovi - Cover
TTITLE32=Novice - Backing In D - Bon Jovi - Cover
TTITLE33=Morning Glory - Intro - Oasis - Cover
TTITLE34=Morning Glory - Verse - Oasis - Cover
TTITLE35=Morning Glory - Backing In E-Minor - Oasis - Cover
TTITLE36=Paul Gilbert Style Speed Lick - Paul Gilbert - Cover
TTITLE37=Daddy, Brother, Lover, Little Boy - Intro Riff - Paul Gilbert - Cover
TTITLE38=Green Tinted Sixties Mind - Intro - Paul Gilbert - Cover
TTITLE39=Chainsaw Song - Demo - Paul Gilbert - Cover
TTITLE40=Chainsaw Song - Backing In E - Paul Gilbert - Cover
TTITLE41=Car Keys Blues - Solo - Stuart Bull
TTITLE42=Car Keys Blues - Easier Solo - Stuart Bull
TTITLE43=Car Keys Blues - Backing D - Stuart Bull
TTITLE44=Sir Duke - Bass - Stevie Wonder - Cover
TTITLE45=Sir Duke - Bass Riffs - Stevie Wonder - Cover
TTITLE46=Sir Duke - Backing - Stevie Wonder - Cover
TTITLE47=Celtic Jig - Parts - Gordon Giltrap
TTITLE48=Celtic Jig - Gordon Giltrap
EXTD=
EXTT0=
EXTT1=
EXTT2=
EXTT3=
EXTT4=
EXTT5=
EXTT6=
EXTT7=
EXTT8=
EXTT9=
EXTT10=
EXTT11=
EXTT12=
EXTT13=
EXTT14=
EXTT15=
EXTT16=
EXTT17=
EXTT18=
EXTT19=
EXTT20=
EXTT21=
EXTT22=
EXTT23=
EXTT24=
EXTT25=
EXTT26=
EXTT27=
EXTT28=
EXTT29=
EXTT30=
EXTT31=
EXTT32=
EXTT33=
EXTT34=
EXTT35=
EXTT36=
EXTT37=
EXTT38=
EXTT39=
EXTT40=
EXTT41=
EXTT42=
EXTT43=
EXTT44=
EXTT45=
EXTT46=
EXTT47=
EXTT48=
PLAYORDER=
